<?xml version="1.0" encoding="UTF-8"?>
<svg width="1200pt" height="1200pt" version="1.1" viewBox="0 0 1200 1200" xmlns="http://www.w3.org/2000/svg">
 <path d="m275.02 249.98c-68.812 0-125.02 56.203-125.02 125.02v450c0 68.812 56.203 125.02 125.02 125.02h174.98c6.6094 0 12.984-2.6719 17.672-7.3594s7.3125-11.016 7.3125-17.672c0-6.6094-2.625-12.984-7.3125-17.672s-11.062-7.3125-17.672-7.3125h-174.98c-42 0-75-33-75-75v-450c0-42 33-75 75-75h174.98c6.6094 0 12.984-2.625 17.672-7.3125s7.3125-11.062 7.3125-17.672c0-6.6562-2.625-12.984-7.3125-17.672s-11.062-7.3594-17.672-7.3594z"/>
 <path d="m750 900c-13.828 0-24.984 11.203-24.984 24.984 0 6.6562 2.625 12.984 7.3125 17.672s11.062 7.3594 17.672 7.3594h50.016c6.6094 0 12.984-2.6719 17.672-7.3594s7.3125-11.016 7.3125-17.672c0-6.6094-2.625-12.984-7.3125-17.672s-11.062-7.3125-17.672-7.3125z"/>
 <path d="m1025 774.98c-13.828 0-25.031 11.203-25.031 25.031v24.984c0 42-33 75-75 75h-24.984c-13.828 0-24.984 11.203-24.984 24.984 0 6.6562 2.625 12.984 7.3125 17.672s11.062 7.3594 17.672 7.3594h24.984c68.812 0 125.02-56.203 125.02-125.02v-24.984c0-6.6562-2.625-12.984-7.3125-17.672s-11.062-7.3594-17.672-7.3594z"/>
 <path d="m1025 624.98c-13.828 0-25.031 11.203-25.031 25.031v50.016-0.046875c0 6.6562 2.6719 12.984 7.3594 17.672s11.016 7.3594 17.672 7.3594c6.6094 0 12.984-2.6719 17.672-7.3594s7.3125-11.016 7.3125-17.672v-50.016 0.046875c0-6.6562-2.625-12.984-7.3125-17.672s-11.062-7.3594-17.672-7.3594z"/>
 <path d="m1025 474.98c-13.828 0-25.031 11.203-25.031 25.031v50.016-0.046875c0 6.6562 2.6719 12.984 7.3594 17.672s11.016 7.3594 17.672 7.3594c6.6094 0 12.984-2.6719 17.672-7.3594s7.3125-11.016 7.3125-17.672v-49.969c0-6.6562-2.625-12.984-7.3125-17.672s-11.062-7.3594-17.672-7.3594z"/>
 <path d="m900 249.98c-13.828 0-24.984 11.203-24.984 25.031 0 6.6094 2.625 12.984 7.3125 17.672s11.062 7.3125 17.672 7.3125h24.984c42 0 75 33 75 75v24.984c0 6.6562 2.6719 12.984 7.3594 17.672s11.016 7.3594 17.672 7.3594c6.6094 0 12.984-2.6719 17.672-7.3594s7.3125-11.016 7.3125-17.672v-24.984c0-68.812-56.203-125.02-125.02-125.02z"/>
 <path d="m750 249.98c-13.828 0-24.984 11.203-24.984 25.031 0 6.6094 2.625 12.984 7.3125 17.672s11.062 7.3125 17.672 7.3125h50.016c6.6094 0 12.984-2.625 17.672-7.3125s7.3125-11.062 7.3125-17.672c0-6.6562-2.625-12.984-7.3125-17.672s-11.062-7.3594-17.672-7.3594z"/>
 <path d="m600 150c-41.109 0-75 33.891-75 75v750c0 41.109 33.891 75 75 75s75-33.891 75-75v-750c0-41.109-33.891-75-75-75z"/>
</svg>
