<?xml version="1.0" standalone="no"?>
<!DOCTYPE svg PUBLIC "-//W3C//DTD SVG 20010904//EN"
 "http://www.w3.org/TR/2001/REC-SVG-20010904/DTD/svg10.dtd">
<svg version="1.0" xmlns="http://www.w3.org/2000/svg"
 width="2739.000000pt" height="842.000000pt" viewBox="0 0 2739.000000 842.000000"
 preserveAspectRatio="xMidYMid meet">

<g transform="translate(0.000000,842.000000) scale(0.100000,-0.100000)"
fill="#000000" stroke="none">
<path d="M4076 7354 c-187 -45 -342 -200 -391 -389 -13 -52 -15 -367 -15
-2750 0 -2945 -4 -2738 57 -2865 35 -73 160 -197 235 -233 153 -73 313 -73
466 0 75 36 200 160 235 233 61 127 57 -80 57 2865 0 2943 4 2738 -57 2864
-14 29 -54 84 -89 121 -132 139 -319 197 -498 154z"/>
<path d="M1795 6659 c-147 -21 -310 -93 -433 -191 -133 -106 -249 -286 -294
-458 l-23 -85 0 -1710 0 -1710 23 -83 c60 -219 189 -399 374 -519 97 -64 180
-97 306 -123 95 -19 136 -20 764 -20 l664 0 44 23 c105 52 129 177 53 268 -51
61 -31 59 -745 59 -718 0 -732 1 -853 61 -114 56 -215 173 -258 299 l-22 65
-3 1655 c-2 1632 -2 1655 18 1734 49 194 201 340 399 382 53 11 199 14 721 14
731 0 693 -4 752 70 61 77 41 191 -43 247 l-43 28 -670 1 c-369 1 -698 -2
-731 -7z"/>
<path d="M5170 6648 c-105 -53 -129 -178 -53 -269 46 -54 70 -59 309 -59 213
0 218 0 260 25 91 53 112 186 41 264 -49 54 -85 61 -307 61 -194 0 -208 -1
-250 -22z"/>
<path d="M6220 6648 c-107 -58 -129 -188 -47 -277 38 -41 77 -51 204 -51 232
0 345 -39 467 -162 119 -120 146 -197 155 -438 5 -151 8 -168 29 -197 89 -124
265 -100 312 43 19 58 7 350 -18 443 -73 264 -262 485 -501 586 -124 52 -203
67 -386 72 -165 5 -171 4 -215 -19z"/>
<path d="M16160 6100 l0 -89 118 -3 117 -3 3 -722 c2 -575 0 -723 -10 -724 -7
0 -56 0 -108 1 -52 0 -101 -4 -108 -8 -9 -6 -12 -32 -10 -93 l3 -84 353 -3
353 -2 -3 92 -3 93 -113 0 -112 0 0 728 0 727 115 0 115 0 0 90 0 90 -355 0
-355 0 0 -90z"/>
<path d="M9370 6144 c-94 -9 -185 -28 -287 -60 -230 -73 -394 -212 -487 -415
-55 -121 -96 -298 -96 -419 0 -31 -3 -85 -6 -119 l-7 -61 -169 0 -168 0 2
-297 3 -298 168 -3 167 -2 0 -1070 0 -1070 430 0 430 0 0 1070 0 1070 323 2
322 3 3 298 2 297 -340 0 -340 0 0 58 c1 31 7 91 14 132 31 167 83 225 237
265 97 26 329 16 467 -19 57 -14 112 -26 123 -26 18 0 19 10 19 313 l0 314
-82 11 c-194 27 -569 40 -728 26z"/>
<path d="M10340 4230 l0 -1900 430 0 430 0 0 1900 0 1900 -430 0 -430 0 0
-1900z"/>
<path d="M11822 5798 l3 -333 453 -3 452 -2 0 335 0 335 -455 0 -455 0 2 -332z"/>
<path d="M22460 5920 l0 -190 -75 0 -75 0 0 -95 0 -95 59 0 c100 0 91 43 91
-429 0 -385 2 -424 20 -496 37 -143 105 -215 244 -257 59 -18 84 -20 175 -14
58 3 129 12 156 20 l50 13 3 106 3 106 -73 -26 c-61 -21 -86 -24 -149 -21 -98
6 -136 27 -169 93 l-25 50 0 425 0 425 208 3 207 2 0 95 0 95 -210 0 -210 0 0
190 0 190 -115 0 -115 0 0 -190z"/>
<path d="M17655 5741 c-77 -23 -148 -59 -213 -110 -28 -23 -56 -41 -61 -41 -6
0 -11 30 -13 68 l-3 67 -112 3 -113 3 0 -681 0 -680 115 0 115 0 0 504 0 505
38 31 c62 52 209 119 278 126 82 9 167 -10 209 -47 75 -66 85 -150 85 -696 l0
-423 115 0 115 0 0 472 c0 485 -4 553 -42 659 -70 198 -295 304 -513 240z"/>
<path d="M20130 5744 c-120 -25 -214 -79 -301 -170 -105 -112 -161 -244 -181
-429 -34 -333 85 -610 312 -725 114 -58 198 -75 365 -75 163 0 211 9 383 75
l82 32 0 129 c0 71 -2 129 -5 129 -3 0 -26 -15 -52 -34 -214 -152 -509 -179
-680 -63 -60 42 -117 115 -143 186 -20 51 -42 206 -31 216 2 3 215 5 473 5
l468 0 0 110 c0 217 -53 375 -164 486 -34 33 -86 72 -116 87 -111 54 -276 70
-410 41z m245 -185 c126 -34 206 -149 217 -309 l3 -45 -359 -3 -359 -2 6 52
c15 120 118 254 230 297 59 23 196 28 262 10z"/>
<path d="M21565 5741 c-79 -24 -130 -50 -208 -110 -36 -27 -68 -47 -71 -43 -3
3 -6 36 -6 74 l0 69 -112 -3 -113 -3 -3 -677 -2 -678 115 0 115 0 0 501 0 500
31 28 c48 44 168 109 234 126 170 44 287 -10 326 -151 17 -63 19 -108 19 -536
l0 -468 115 0 115 0 0 491 c0 532 -4 577 -57 682 -30 61 -95 131 -147 162 -93
54 -239 69 -351 36z"/>
<path d="M23650 5744 c-349 -75 -531 -448 -444 -909 24 -123 90 -252 172 -334
119 -118 260 -167 452 -158 166 9 282 57 386 161 125 126 184 300 184 546 0
259 -65 433 -209 567 -130 120 -342 170 -541 127z m262 -204 c105 -32 170 -99
218 -225 19 -51 24 -84 28 -216 5 -190 -7 -275 -54 -369 -45 -89 -104 -142
-191 -171 -174 -58 -356 15 -432 174 -79 163 -79 469 0 634 75 157 252 229
431 173z"/>
<path d="M18360 5718 c0 -7 88 -247 196 -533 108 -286 206 -549 219 -585 13
-36 37 -101 53 -145 l30 -80 104 -3 105 -3 26 68 c23 61 76 202 395 1045 49
130 87 240 84 243 -12 11 -220 5 -229 -7 -11 -15 -4 4 -173 -478 -72 -206
-143 -406 -156 -445 -14 -38 -27 -76 -30 -82 -8 -30 -22 -5 -68 125 -27 75
-77 216 -111 312 -34 96 -93 261 -130 365 -37 105 -72 196 -78 203 -6 8 -44
12 -123 12 -85 0 -114 -3 -114 -12z"/>
<path d="M24640 5050 l0 -680 115 0 115 0 0 483 0 484 63 46 c34 26 91 59 127
73 56 23 81 27 180 29 l115 2 3 115 c3 113 2 116 -20 122 -100 26 -241 -21
-386 -129 -40 -30 -75 -55 -77 -55 -2 0 -6 42 -7 93 l-3 92 -112 3 -113 3 0
-681z"/>
<path d="M25390 5717 c0 -7 50 -144 111 -303 60 -159 148 -388 194 -509 46
-121 104 -274 129 -340 25 -66 46 -127 46 -136 0 -10 -52 -136 -115 -282 -63
-146 -115 -270 -115 -276 0 -7 40 -11 119 -11 l118 0 66 168 c59 149 179 455
302 767 24 61 69 175 100 255 99 254 197 502 230 585 18 44 30 83 28 88 -8 13
-220 8 -230 -5 -6 -7 -55 -137 -111 -288 -205 -562 -244 -665 -254 -684 -10
-18 -13 -14 -29 30 -10 27 -63 173 -119 324 -56 151 -129 349 -162 440 -33 91
-65 171 -71 178 -14 18 -237 17 -237 -1z"/>
<path d="M14926 5139 c-213 -21 -424 -119 -646 -298 l-65 -52 -3 140 -3 141
-424 0 -425 0 0 -1875 0 -1875 425 0 425 0 0 570 c0 314 2 570 5 570 3 0 52
-22 108 -50 217 -105 363 -136 606 -127 171 6 258 26 398 92 113 53 186 104
282 198 325 316 463 739 430 1321 -25 445 -137 763 -351 991 -183 196 -452
286 -762 254z m-134 -670 c257 -54 378 -291 378 -739 0 -318 -61 -530 -190
-665 -116 -120 -228 -158 -460 -158 -123 0 -157 4 -225 24 l-80 24 0 695 0
695 96 48 c149 75 340 105 481 76z"/>
<path d="M7092 5069 c-28 -14 -51 -36 -67 -64 -25 -41 -25 -46 -25 -260 0
-198 2 -223 20 -259 56 -115 216 -126 296 -20 l29 37 0 238 0 237 -30 38 c-60
74 -141 93 -223 53z"/>
<path d="M11850 3700 l0 -1370 425 0 425 0 0 1370 0 1370 -425 0 -425 0 0
-1370z"/>
<path d="M7110 4029 c-14 -6 -38 -22 -53 -37 -55 -52 -57 -63 -57 -300 0 -209
1 -221 23 -262 48 -92 174 -118 255 -53 68 54 72 72 72 308 0 262 -12 298
-113 340 -41 17 -90 19 -127 4z"/>
<path d="M7105 2976 c-37 -17 -80 -62 -94 -99 -6 -16 -11 -81 -11 -145 0 -161
-13 -232 -59 -327 -64 -131 -169 -220 -311 -266 -51 -17 -100 -22 -228 -26
-145 -5 -166 -8 -195 -27 -97 -65 -112 -187 -34 -269 43 -46 88 -57 232 -57
263 1 439 56 611 194 144 115 258 291 305 471 26 99 39 380 20 438 -33 100
-145 153 -236 113z"/>
<path d="M5164 2091 c-137 -83 -114 -281 37 -321 25 -7 121 -10 249 -8 l208 3
39 31 c21 17 46 46 55 65 40 78 9 183 -67 226 -38 22 -50 23 -265 23 -204 0
-228 -2 -256 -19z"/>
</g>
</svg>
